<svg width="32" height="32" viewBox="0 0 32 32" fill="none" xmlns="http://www.w3.org/2000/svg">
<g clip-path="url(#clip0_10_8)">
<g filter="url(#filter0_d_10_8)">
<path d="M13.04 29.333L13 17.666H8V12.666H13V9.33302C13 4.84002 15.787 2.66602 19.8 2.66602C21.72 2.66602 23.373 2.79902 23.853 2.86602V7.57302H21.066C18.893 7.57302 18.466 8.61302 18.466 10.133V12.666H24.666L22.999 17.666H18.466V29.333H13.039H13.04Z" fill="white"/>
<path d="M17.966 28.833H13.5383L13.5 17.6643L13.4983 17.166H13H8.5V13.166H13H13.5V12.666V9.33302C13.5 7.19327 14.1603 5.67247 15.2341 4.68221C16.3146 3.68578 17.8794 3.16602 19.8 3.16602C21.3051 3.16602 22.6378 3.24864 23.353 3.31432V7.07302H21.066C19.9118 7.07302 19.0834 7.34879 18.5684 7.96123C18.0698 8.55426 17.966 9.35069 17.966 10.133V12.666V13.166H18.466H23.9722L22.6386 17.166H18.466H17.966V17.666V28.833Z" stroke="black"/>
</g>
</g>
<defs>
<filter id="filter0_d_10_8" x="4" y="2.66602" width="24.666" height="34.667" filterUnits="userSpaceOnUse" color-interpolation-filters="sRGB">
<feFlood flood-opacity="0" result="BackgroundImageFix"/>
<feColorMatrix in="SourceAlpha" type="matrix" values="0 0 0 0 0 0 0 0 0 0 0 0 0 0 0 0 0 0 127 0" result="hardAlpha"/>
<feOffset dy="4"/>
<feGaussianBlur stdDeviation="2"/>
<feComposite in2="hardAlpha" operator="out"/>
<feColorMatrix type="matrix" values="0 0 0 0 0 0 0 0 0 0 0 0 0 0 0 0 0 0 0.25 0"/>
<feBlend mode="normal" in2="BackgroundImageFix" result="effect1_dropShadow_10_8"/>
<feBlend mode="normal" in="SourceGraphic" in2="effect1_dropShadow_10_8" result="shape"/>
</filter>
<clipPath id="clip0_10_8">
<rect width="32" height="32" fill="white"/>
</clipPath>
</defs>
</svg>
