<svg width="32" height="32" viewBox="0 0 32 32" fill="none" xmlns="http://www.w3.org/2000/svg">
<g clip-path="url(#clip0_10_6)">
<g filter="url(#filter0_d_10_6)">
<path d="M17.36 2.66699C19.76 2.66699 20.267 2.69399 21.493 2.74699C22.906 2.81399 23.88 3.03999 24.72 3.37399C25.6 3.70699 26.347 4.17399 27.08 4.90699C27.827 5.63999 28.28 6.38699 28.627 7.26699C28.96 8.10699 29.174 9.07999 29.24 10.507C29.307 11.774 29.32 12.267 29.32 14.934V17.067C29.32 19.734 29.307 20.227 29.24 21.494C29.217 22.659 28.994 23.764 28.604 24.788L28.626 24.721C28.279 25.601 27.826 26.348 27.093 27.081C26.346 27.828 25.6 28.281 24.72 28.628C23.88 28.961 22.907 29.175 21.493 29.241C20.226 29.308 19.72 29.321 17.053 29.321H14.933C12.266 29.321 11.773 29.308 10.493 29.241C9.32796 29.218 8.22296 28.995 7.19896 28.605L7.26596 28.627C6.34296 28.274 5.55596 27.753 4.90696 27.094L4.90596 27.093C4.23996 26.441 3.71396 25.649 3.37396 24.764L3.35896 24.719C2.99196 23.763 2.76896 22.657 2.74596 21.502V21.492C2.69296 20.45 2.66296 19.229 2.66296 18.002C2.66296 17.776 2.66396 17.55 2.66596 17.325V17.359V14.626C2.66596 12.226 2.69296 11.719 2.74596 10.493C2.81296 9.07999 3.03896 8.10599 3.35896 7.26599C3.70596 6.38599 4.15896 5.63899 4.90596 4.90599C5.55096 4.23899 6.33996 3.71599 7.22296 3.38699L7.26596 3.37299C8.22096 3.00199 9.32596 2.77399 10.481 2.74699H10.493C11.72 2.69399 12.226 2.66699 14.626 2.66699H17.36ZM17.387 5.06699H14.6C12.293 5.06699 11.8 5.09399 10.6 5.14699C9.30696 5.19999 8.59996 5.41399 8.13296 5.59999C7.50596 5.83999 7.06596 6.13299 6.59996 6.59999C6.13396 7.06699 5.83996 7.50699 5.59996 8.13299C5.42696 8.59999 5.19996 9.30599 5.14696 10.613C5.09396 11.813 5.06696 12.293 5.06696 14.613V17.386C5.06696 19.706 5.09396 20.186 5.14696 21.386C5.19996 22.679 5.41396 23.386 5.59996 23.853C5.83996 24.48 6.13296 24.92 6.59996 25.386C7.06696 25.852 7.50696 26.146 8.13296 26.386C8.59996 26.573 9.30596 26.786 10.613 26.839C11.906 26.906 12.373 26.919 15.253 26.919H16.733C19.626 26.919 20.08 26.906 21.386 26.839C22.679 26.786 23.386 26.572 23.853 26.386C24.48 26.146 24.92 25.853 25.386 25.386C25.852 24.919 26.146 24.479 26.386 23.853C26.573 23.386 26.786 22.68 26.839 21.386C26.906 20.079 26.919 19.626 26.919 16.733V15.266C26.919 12.373 26.906 11.906 26.839 10.599C26.786 9.30599 26.572 8.59899 26.386 8.13199C26.16 7.53099 25.819 7.01799 25.387 6.59999L25.386 6.59899C24.966 6.16599 24.454 5.82499 23.881 5.60799L23.853 5.59899C23.121 5.32299 22.275 5.15799 21.391 5.14599H21.386C20.358 5.09399 19.155 5.06399 17.944 5.06399C17.748 5.06399 17.552 5.06499 17.356 5.06599H17.386L17.387 5.06699ZM16 9.14699C19.781 9.14699 22.847 12.212 22.847 15.994C22.847 19.776 19.782 22.841 16 22.841C12.219 22.841 9.15296 19.776 9.15296 15.994C9.15296 12.212 12.218 9.14699 16 9.14699ZM16 11.547C13.544 11.547 11.553 13.538 11.553 15.994C11.553 18.45 13.544 20.441 16 20.441C18.456 20.441 20.447 18.45 20.447 15.994C20.447 13.538 18.456 11.547 16 11.547ZM23.107 7.27999C23.991 7.27999 24.707 7.99599 24.707 8.87999C24.707 9.76399 23.991 10.48 23.107 10.48C22.223 10.48 21.507 9.76399 21.507 8.87999C21.507 7.99599 22.223 7.27999 23.107 7.27999Z" fill="white"/>
<path d="M17.3534 4.56699L17.3534 4.566L17.3541 4.566C17.5496 4.565 17.7467 4.56399 17.944 4.56399C19.1583 4.56399 20.3654 4.59395 21.4001 4.64607C22.3349 4.65903 23.2333 4.83263 24.0175 5.1267L24.034 5.13198L24.0461 5.13588L24.058 5.1404C24.6989 5.38309 25.2708 5.76362 25.7399 6.24573C26.2218 6.71353 26.6013 7.28598 26.8522 7.95144C27.0592 8.47226 27.2832 9.23391 27.3384 10.576C27.406 11.8938 27.419 12.3721 27.419 15.266V16.733C27.419 19.627 27.406 20.0913 27.3384 21.4091M17.3534 4.56699L26.839 21.386M17.3534 4.56699H14.6C12.3922 4.56699 11.8345 4.59174 10.7419 4.64022C10.6888 4.64257 10.6345 4.64498 10.5787 4.64744C9.23441 4.70262 8.47217 4.92701 7.95109 5.13423C7.25738 5.40019 6.759 5.73275 6.24603 6.24682C5.73318 6.76077 5.39941 7.25937 5.1331 7.954L5.13307 7.95399L5.1311 7.9593C4.94299 8.4671 4.70294 9.22479 4.64741 10.5918M17.3534 4.56699L5.14696 10.613M27.3384 21.4091C27.3384 21.4099 27.3384 21.4107 27.3383 21.4116L26.839 21.386M27.3384 21.4091C27.3385 21.4082 27.3385 21.4073 27.3385 21.4065L26.839 21.386M27.3384 21.4091C27.2832 22.7525 27.0601 23.5137 26.8515 24.0354M26.839 21.386C26.786 22.68 26.573 23.386 26.386 23.853M26.8515 24.0354C26.8519 24.0343 26.8524 24.0331 26.8528 24.032L26.386 23.853M26.8515 24.0354C26.5854 24.7283 26.2519 25.2261 25.7399 25.7392C25.2269 26.2532 24.7285 26.5858 24.0348 26.8518M26.8515 24.0354C26.851 24.0366 26.8506 24.0377 26.8501 24.0389L26.386 23.853M26.386 23.853L24.0348 26.8518M24.0348 26.8518C24.0359 26.8513 24.0369 26.8509 24.038 26.8505L23.853 26.386L24.0317 26.853C24.0327 26.8526 24.0338 26.8522 24.0348 26.8518ZM24.0348 26.8518C23.514 27.0589 22.7522 27.2832 21.4091 27.3385M24.0348 26.8518L10.613 26.839M21.4091 27.3385C21.4099 27.3384 21.4108 27.3384 21.4116 27.3383L21.386 26.839L21.4064 27.3386C21.4073 27.3385 21.4082 27.3385 21.4091 27.3385ZM21.4091 27.3385C20.0922 27.406 19.627 27.419 16.733 27.419H15.253C12.3723 27.419 11.8937 27.406 10.5899 27.3385M10.5899 27.3385C10.589 27.3384 10.588 27.3384 10.5871 27.3383L10.613 26.839M10.5899 27.3385C10.5908 27.3385 10.5918 27.3385 10.5927 27.3386L10.613 26.839M10.5899 27.3385C9.23397 27.2832 8.47272 27.0603 7.95052 26.8515M10.613 26.839C9.30596 26.786 8.59996 26.573 8.13296 26.386M7.95052 26.8515C7.95167 26.852 7.95282 26.8524 7.95397 26.8529L8.13296 26.386M7.95052 26.8515C7.25769 26.5854 6.75989 26.2519 6.24679 25.7399C5.73272 25.227 5.40016 24.7286 5.13419 24.0348M7.95052 26.8515C7.94938 26.8511 7.94824 26.8506 7.9471 26.8502L8.13296 26.386M8.13296 26.386L5.13419 24.0348M5.13419 24.0348C5.13461 24.0359 5.13503 24.0369 5.13545 24.038L5.59996 23.853L5.133 24.0317C5.1334 24.0328 5.1338 24.0338 5.13419 24.0348ZM5.13419 24.0348C4.92697 23.5138 4.70259 22.7515 4.64742 21.4073M5.13419 24.0348L5.14696 21.386M4.64742 21.4073C4.64743 21.4075 4.64744 21.4078 4.64745 21.4081L5.14696 21.386M4.64742 21.4073C4.64741 21.407 4.64739 21.4067 4.64738 21.4065L5.14696 21.386M4.64742 21.4073C4.64471 21.3459 4.64207 21.2865 4.63949 21.2285C4.59147 20.1474 4.56696 19.5956 4.56696 17.386V14.613C4.56696 12.4034 4.59147 11.8516 4.63949 10.7705C4.64206 10.7126 4.6447 10.6531 4.64741 10.5918M5.14696 21.386C5.1442 21.3234 5.1415 21.2627 5.13888 21.2036C5.09122 20.1309 5.06696 19.5849 5.06696 17.386V14.613C5.06696 12.4141 5.09122 11.8681 5.13888 10.7953C5.1415 10.7363 5.1442 10.6756 5.14696 10.613M4.64741 10.5918C4.6474 10.5921 4.64739 10.5924 4.64737 10.5927L5.14696 10.613M4.64741 10.5918C4.64742 10.5915 4.64744 10.5912 4.64745 10.5909L5.14696 10.613M24.5352 3.83861L24.5352 3.83868L24.543 3.84163C25.3578 4.14994 26.0443 4.57845 26.7264 5.26055L26.7264 5.26056L26.7298 5.26387C27.4204 5.94161 27.8371 6.62696 28.1618 7.45041L28.1622 7.45126C28.4705 8.22913 28.6765 9.14556 28.7405 10.5301L28.7407 10.5334C28.807 11.7873 28.82 12.2701 28.82 14.934V17.067C28.82 19.7309 28.807 20.2137 28.7407 21.4676L28.7402 21.4759L28.7401 21.4841C28.7187 22.5638 28.5167 23.5878 28.1636 24.5386L28.1608 24.5376C27.8359 25.3615 27.4184 26.0484 26.7394 26.7274C26.0457 27.4211 25.3595 27.8384 24.5365 28.1628L24.5357 28.1632C23.7576 28.4717 22.841 28.6775 21.4697 28.7415L21.4666 28.7417C20.2127 28.808 19.717 28.821 17.053 28.821H14.933C12.2691 28.821 11.7862 28.808 10.5191 28.7417L10.511 28.7412L10.5028 28.7411C9.42129 28.7197 8.39574 28.5171 7.44356 28.1628L7.44457 28.16C6.58793 27.8324 5.86163 27.3508 5.26321 26.7432L5.26043 26.7404L5.25943 26.7394L5.25945 26.7393L5.25574 26.7357C4.64289 26.1357 4.15866 25.4078 3.84467 24.595L3.83331 24.5609L3.82976 24.5503L3.82575 24.5398C3.48055 23.6406 3.26837 22.5938 3.24596 21.497V21.492V21.4793L3.24532 21.4666C3.1928 20.434 3.16296 19.2215 3.16296 18.002C3.16296 17.7874 3.16387 17.5727 3.16569 17.359H3.16596V17.325V14.626C3.16596 12.346 3.19032 11.7853 3.23827 10.6812C3.24061 10.6274 3.243 10.5723 3.24545 10.5156C3.31021 9.15167 3.52661 8.23125 3.82517 7.4467C4.14972 6.62446 4.56623 5.93987 5.25616 5.26287L5.25628 5.263L5.2654 5.25357C5.85726 4.64152 6.58006 4.16178 7.38793 3.85912L7.42076 3.84843L7.43402 3.84411L7.44702 3.83906C8.34526 3.49011 9.39076 3.27329 10.4869 3.24699H10.493H10.5038L10.5145 3.24653C10.5723 3.24403 10.6284 3.2416 10.6832 3.23922C11.7868 3.19132 12.3472 3.16699 14.626 3.16699H17.36C19.64 3.16699 20.2007 3.19135 21.3047 3.2393C21.3586 3.24164 21.4137 3.24403 21.4703 3.24648C22.8363 3.31134 23.7544 3.52815 24.5352 3.83861ZM16 9.64699C19.5049 9.64699 22.347 12.4882 22.347 15.994C22.347 19.4999 19.5058 22.341 16 22.341C12.4951 22.341 9.65296 19.4998 9.65296 15.994C9.65296 12.4881 12.4941 9.64699 16 9.64699ZM16 11.047C13.2678 11.047 11.053 13.2619 11.053 15.994C11.053 18.7261 13.2678 20.941 16 20.941C18.7321 20.941 20.947 18.7261 20.947 15.994C20.947 13.2619 18.7321 11.047 16 11.047ZM23.107 7.77999C23.7148 7.77999 24.207 8.27213 24.207 8.87999C24.207 9.48785 23.7148 9.97999 23.107 9.97999C22.4991 9.97999 22.007 9.48785 22.007 8.87999C22.007 8.27213 22.4991 7.77999 23.107 7.77999Z" stroke="black"/>
</g>
</g>
<defs>
<filter id="filter0_d_10_6" x="-1.33704" y="2.66699" width="34.657" height="34.6538" filterUnits="userSpaceOnUse" color-interpolation-filters="sRGB">
<feFlood flood-opacity="0" result="BackgroundImageFix"/>
<feColorMatrix in="SourceAlpha" type="matrix" values="0 0 0 0 0 0 0 0 0 0 0 0 0 0 0 0 0 0 127 0" result="hardAlpha"/>
<feOffset dy="4"/>
<feGaussianBlur stdDeviation="2"/>
<feComposite in2="hardAlpha" operator="out"/>
<feColorMatrix type="matrix" values="0 0 0 0 0 0 0 0 0 0 0 0 0 0 0 0 0 0 0.25 0"/>
<feBlend mode="normal" in2="BackgroundImageFix" result="effect1_dropShadow_10_6"/>
<feBlend mode="normal" in="SourceGraphic" in2="effect1_dropShadow_10_6" result="shape"/>
</filter>
<clipPath id="clip0_10_6">
<rect width="32" height="32" fill="white"/>
</clipPath>
</defs>
</svg>
