<svg width="32" height="32" viewBox="0 0 32 32" fill="none" xmlns="http://www.w3.org/2000/svg">
<g clip-path="url(#clip0_10_12)">
<g filter="url(#filter0_d_10_12)">
<path d="M16 2.66699C8.65699 2.69399 2.71399 8.65299 2.71399 16C2.71399 21.599 6.16599 26.393 11.057 28.368L11.146 28.4C11.013 27.347 10.919 25.733 11.186 24.573L12.746 17.946C12.746 17.946 12.346 17.146 12.346 15.973C12.346 14.12 13.426 12.746 14.773 12.746C15.906 12.746 16.466 13.599 16.466 14.613C16.466 15.76 15.733 17.466 15.346 19.053C15.026 20.386 16.013 21.466 17.333 21.466C19.706 21.466 21.52 18.973 21.52 15.373C21.52 12.173 19.227 9.95999 15.947 9.95999C15.871 9.95599 15.783 9.95399 15.694 9.95399C12.505 9.95399 9.92099 12.539 9.92099 15.727C9.92099 15.729 9.92099 15.731 9.92099 15.733C9.92099 16.88 10.361 18.106 10.908 18.773C11.015 18.906 11.028 19.026 10.988 19.16L10.615 20.667C10.562 20.907 10.415 20.974 10.175 20.854C8.49499 20.067 7.45499 17.654 7.45499 15.681C7.45499 11.481 10.522 7.62799 16.282 7.62799C20.895 7.62799 24.509 10.908 24.509 15.321C24.509 19.921 21.602 23.614 17.576 23.614C16.243 23.614 14.963 22.907 14.536 22.081L13.696 25.241C13.265 26.578 12.704 27.739 12.008 28.804L12.042 28.748C13.212 29.12 14.558 29.335 15.953 29.335C23.317 29.335 29.286 23.365 29.286 16.002C29.286 8.65499 23.344 2.69599 16.004 2.66899H16.001L16 2.66699Z" fill="white"/>
<path d="M15.953 28.835C14.8503 28.835 13.7815 28.6955 12.8154 28.4492C13.3591 27.52 13.8104 26.5158 14.1719 25.3944L14.1759 25.382L14.1792 25.3694L14.774 23.1318C14.9883 23.3105 15.2299 23.4683 15.4861 23.6011C16.0924 23.9155 16.8241 24.114 17.576 24.114C21.9659 24.114 25.009 20.1004 25.009 15.321C25.009 10.5967 21.1346 7.12799 16.282 7.12799C13.2856 7.12799 10.9462 8.13304 9.35476 9.72612C7.76691 11.3156 6.95499 13.4594 6.95499 15.681C6.95499 16.7481 7.23442 17.9203 7.737 18.9343C8.23615 19.9413 8.98298 20.8457 9.95763 21.3043C10.1269 21.3878 10.3913 21.4722 10.6637 21.3544C10.9481 21.2313 11.059 20.9692 11.1016 20.7819L11.4709 19.2899C11.5048 19.1712 11.5233 19.0304 11.4949 18.8759C11.4654 18.715 11.392 18.577 11.2976 18.4596L11.2976 18.4596L11.2946 18.4559C10.8299 17.8893 10.421 16.7794 10.421 15.733V15.733V15.733V15.733V15.7329V15.7329V15.7329V15.7329V15.7329V15.7329V15.7329V15.7329V15.7329V15.7328V15.7328V15.7328V15.7328V15.7328V15.7328V15.7328V15.7328V15.7327V15.7327V15.7327V15.7327V15.7327V15.7327V15.7327V15.7327V15.7327V15.7326V15.7326V15.7326V15.7326V15.7326V15.7326V15.7326V15.7326V15.7325V15.7325V15.7325V15.7325V15.7325V15.7325V15.7325V15.7325V15.7325V15.7324V15.7324V15.7324V15.7324V15.7324V15.7324V15.7324V15.7324V15.7323V15.7323V15.7323V15.7323V15.7323V15.7323V15.7323V15.7323V15.7323V15.7322V15.7322V15.7322V15.7322V15.7322V15.7322V15.7322V15.7322V15.7321V15.7321V15.7321V15.7321V15.7321V15.7321V15.7321V15.7321V15.7321V15.732V15.732V15.732V15.732V15.732V15.732V15.732V15.732V15.7319V15.7319V15.7319V15.7319V15.7319V15.7319V15.7319V15.7319V15.7319V15.7318V15.7318V15.7318V15.7318V15.7318V15.7318V15.7318V15.7318V15.7318V15.7317V15.7317V15.7317V15.7317V15.7317V15.7317V15.7317V15.7317V15.7316V15.7316V15.7316V15.7316V15.7316V15.7316V15.7316V15.7316V15.7316V15.7315V15.7315V15.7315V15.7315V15.7315V15.7315V15.7315V15.7315V15.7314V15.7314V15.7314V15.7314V15.7314V15.7314V15.7314V15.7314V15.7314V15.7313V15.7313V15.7313V15.7313V15.7313V15.7313V15.7313V15.7313V15.7312V15.7312V15.7312V15.7312V15.7312V15.7312V15.7312V15.7312V15.7312V15.7311V15.7311V15.7311V15.7311V15.7311V15.7311V15.7311V15.7311V15.731V15.731V15.731V15.731V15.731V15.731V15.731V15.731V15.731V15.7309V15.7309V15.7309V15.7309V15.7309V15.7309V15.7309V15.7309V15.7308V15.7308V15.7308V15.7308V15.7308V15.7308V15.7308V15.7308V15.7308V15.7307V15.7307V15.7307V15.7307V15.7307V15.7307V15.7307V15.7307V15.7306V15.7306V15.7306V15.7306V15.7306V15.7306V15.7306V15.7306V15.7306V15.7305V15.7305V15.7305V15.7305V15.7305V15.7305V15.7305V15.7305V15.7304V15.7304V15.7304V15.7304V15.7304V15.7304V15.7304V15.7304V15.7304V15.7303V15.7303V15.7303V15.7303V15.7303V15.7303V15.7303V15.7303V15.7303V15.7302V15.7302V15.7302V15.7302V15.7302V15.7302V15.7302V15.7302V15.7301V15.7301V15.7301V15.7301V15.7301V15.7301V15.7301V15.7301V15.7301V15.73V15.73V15.73V15.73V15.73V15.73V15.73V15.73V15.7299V15.7299V15.7299V15.7299V15.7299V15.7299V15.7299V15.7299V15.7299V15.7298V15.7298V15.7298V15.7298V15.7298V15.7298V15.7298V15.7298V15.7297V15.7297V15.7297V15.7297V15.7297V15.7297V15.7297V15.7297V15.7297V15.7296V15.7296V15.7296V15.7296V15.7296V15.7296V15.7296V15.7296V15.7295V15.7295V15.7295V15.7295V15.7295V15.7295V15.7295V15.7295V15.7295V15.7294V15.7294V15.7294V15.7294V15.7294V15.7294V15.7294V15.7294V15.7293V15.7293V15.7293V15.7293V15.7293V15.7293V15.7293V15.7293V15.7293V15.7292V15.7292V15.7292V15.7292V15.7292V15.7292V15.7292V15.7292V15.7291V15.7291V15.7291V15.7291V15.7291V15.7291V15.7291V15.7291V15.7291V15.729V15.729V15.729V15.729V15.729V15.729V15.729V15.729V15.7289V15.7289V15.7289V15.7289V15.7289V15.7289V15.7289V15.7289V15.7289V15.7288V15.7288V15.7288V15.7288V15.7288V15.7288V15.7288V15.7288V15.7288V15.7287V15.7287V15.7287V15.7287V15.7287V15.7287V15.7287V15.7287V15.7286V15.7286V15.7286V15.7286V15.7286V15.7286V15.7286V15.7286V15.7286V15.7285V15.7285V15.7285V15.7285V15.7285V15.7285V15.7285V15.7285V15.7284V15.7284V15.7284V15.7284V15.7284V15.7284V15.7284V15.7284V15.7284V15.7283V15.7283V15.7283V15.7283V15.7283V15.7283V15.7283V15.7283V15.7282V15.7282V15.7282V15.7282V15.7282V15.7282V15.7282V15.7282V15.7282V15.7281V15.7281V15.7281V15.7281V15.7281V15.7281V15.7281V15.7281V15.728V15.728V15.728V15.728V15.728V15.728V15.728V15.728V15.728V15.7279V15.7279V15.7279V15.7279V15.7279V15.7279V15.7279V15.7279V15.7278V15.7278V15.7278V15.7278V15.7278V15.7278V15.7278V15.7278V15.7278V15.7277V15.7277V15.7277V15.7277V15.7277V15.7277V15.7277V15.7277V15.7276V15.7276V15.7276V15.7276V15.7276V15.7276V15.7276V15.7276V15.7276V15.7275V15.7275V15.7275V15.7275V15.7275V15.7275V15.7275V15.7275V15.7274V15.7274V15.7274V15.7274V15.7274V15.7274V15.7274V15.7274V15.7274V15.7273V15.7273V15.7273V15.7273V15.7273V15.7273V15.7273V15.7273V15.7273V15.7272V15.7272V15.7272V15.7272V15.7272V15.7272V15.7272V15.7272V15.7271V15.7271V15.7271V15.7271V15.7271V15.7271V15.7271V15.7271V15.7271V15.727V15.727V15.727V15.727V15.727C10.421 12.8151 12.7812 10.454 15.694 10.454C15.7762 10.454 15.8553 10.4559 15.9207 10.4593L15.9338 10.46H15.947C17.4727 10.46 18.7361 10.973 19.6155 11.8255C20.4936 12.6768 21.02 13.8967 21.02 15.373C21.02 17.0941 20.5858 18.5112 19.9065 19.4831C19.2312 20.4493 18.326 20.966 17.333 20.966C16.2954 20.966 15.5974 20.1499 15.832 19.1706C15.9658 18.622 16.1398 18.0665 16.3146 17.5082C16.3871 17.2766 16.4598 17.0445 16.5298 16.8123C16.7598 16.0497 16.966 15.27 16.966 14.613C16.966 14.0197 16.8025 13.4308 16.4294 12.9803C16.046 12.5174 15.4774 12.246 14.773 12.246C13.0322 12.246 11.846 13.9784 11.846 15.973C11.846 16.6157 11.9554 17.1562 12.0656 17.538C12.1208 17.7292 12.1765 17.8819 12.2195 17.9891C12.2201 17.9905 12.2207 17.9918 12.2212 17.9932L10.6993 24.4584L10.6987 24.4608C10.4798 25.4119 10.4879 26.616 10.5635 27.6062C6.21878 25.5498 3.21399 21.1247 3.21399 16C3.21399 8.99072 8.83402 3.29383 15.8159 3.16899H16.001H16.0031C23.0673 3.19547 28.786 8.93079 28.786 16.002C28.786 23.0889 23.0408 28.835 15.953 28.835Z" stroke="black"/>
</g>
</g>
<defs>
<filter id="filter0_d_10_12" x="-1.28601" y="2.66699" width="34.572" height="34.668" filterUnits="userSpaceOnUse" color-interpolation-filters="sRGB">
<feFlood flood-opacity="0" result="BackgroundImageFix"/>
<feColorMatrix in="SourceAlpha" type="matrix" values="0 0 0 0 0 0 0 0 0 0 0 0 0 0 0 0 0 0 127 0" result="hardAlpha"/>
<feOffset dy="4"/>
<feGaussianBlur stdDeviation="2"/>
<feComposite in2="hardAlpha" operator="out"/>
<feColorMatrix type="matrix" values="0 0 0 0 0 0 0 0 0 0 0 0 0 0 0 0 0 0 0.25 0"/>
<feBlend mode="normal" in2="BackgroundImageFix" result="effect1_dropShadow_10_12"/>
<feBlend mode="normal" in="SourceGraphic" in2="effect1_dropShadow_10_12" result="shape"/>
</filter>
<clipPath id="clip0_10_12">
<rect width="32" height="32" fill="white"/>
</clipPath>
</defs>
</svg>
