<svg width="32" height="32" viewBox="0 0 32 32" fill="none" xmlns="http://www.w3.org/2000/svg">
<g clip-path="url(#clip0_10_10)">
<g filter="url(#filter0_d_10_10)">
<path d="M29.333 7.83998C28.333 8.33298 27.333 8.50698 26.16 8.66698C27.333 7.99998 28.16 6.99998 28.493 5.66698C27.488 6.27498 26.317 6.73798 25.07 6.98898L25 7.00098C23.969 5.98698 22.56 5.35498 21.004 5.33398H21C18.16 5.33398 15.667 7.84098 15.667 10.841C15.667 11.334 15.667 11.668 15.84 12.001C11.262 11.823 7.22097 9.66398 4.52897 6.36198L4.50697 6.33398C4.08197 7.05998 3.83097 7.93198 3.83097 8.86298C3.83097 8.97198 3.83397 9.08098 3.84097 9.18898L3.83997 9.17398C3.87397 11.052 4.84897 12.695 6.31297 13.655L6.33397 13.668C5.49397 13.668 4.66697 13.335 3.82697 13.001C3.82697 15.668 5.66697 17.841 8.15997 18.334C7.66697 18.507 7.15997 18.507 6.66697 18.507C6.33397 18.507 5.99997 18.507 5.66697 18.334C6.33397 20.507 8.33397 22.174 10.84 22.174C9.03997 23.629 6.72397 24.509 4.20297 24.509C4.13197 24.509 4.06097 24.508 3.98997 24.507H4.00097H2.66797C5.03297 26.016 7.90397 26.936 10.984 27H11.001C21.001 27 26.508 18.667 26.508 11.493V10.826C27.655 10.036 28.601 9.03898 29.311 7.88198L29.335 7.83998H29.333Z" fill="white"/>
<path d="M10.9892 26.5C8.69308 26.4515 6.51844 25.9126 4.59594 25.0022C7.08231 24.9156 9.36203 24.0116 11.1543 22.5628L12.2539 21.674H10.84C8.89432 21.674 7.28244 20.5668 6.47857 19.0062C6.53431 19.0071 6.5875 19.007 6.63766 19.007C6.64755 19.007 6.65732 19.007 6.66697 19.007L6.69679 19.007C7.17157 19.0071 7.75157 19.0072 8.32553 18.8058L10.0547 18.199L8.25697 17.8435C6.23602 17.4438 4.6859 15.827 4.38144 13.7525C4.99893 13.9785 5.65802 14.168 6.33397 14.168H8.09153L6.59715 13.2429L6.58184 13.2334C5.25361 12.36 4.37074 10.869 4.33989 9.16493L4.16596 9.16808L4.33992 9.15665C4.33372 9.061 4.33097 8.96292 4.33097 8.86298C4.33097 8.28855 4.43675 7.74041 4.625 7.24351C7.39341 10.3321 11.3606 12.3272 15.8205 12.5006L16.6804 12.534L16.2837 11.7705C16.1769 11.5649 16.167 11.3605 16.167 10.841C16.167 8.10587 18.4472 5.83398 21 5.83398H21.0005C22.4215 5.85403 23.7074 6.43103 24.6494 7.35746L24.832 7.53708L25.0845 7.4938L25.1545 7.4818L25.1616 7.48058L25.1686 7.47915C25.9863 7.31458 26.7733 7.06273 27.5067 6.74029C27.1255 7.35296 26.5858 7.84966 25.9128 8.23234L26.2275 9.1624C26.8349 9.07956 27.4137 8.99113 27.9798 8.85198C27.4695 9.43721 26.8821 9.96121 26.2244 10.4142L26.008 10.5632V10.826V11.493C26.008 18.452 20.6674 26.5 11.001 26.5H10.9892Z" stroke="black"/>
</g>
</g>
<defs>
<filter id="filter0_d_10_10" x="-1.33203" y="5.33398" width="34.667" height="29.666" filterUnits="userSpaceOnUse" color-interpolation-filters="sRGB">
<feFlood flood-opacity="0" result="BackgroundImageFix"/>
<feColorMatrix in="SourceAlpha" type="matrix" values="0 0 0 0 0 0 0 0 0 0 0 0 0 0 0 0 0 0 127 0" result="hardAlpha"/>
<feOffset dy="4"/>
<feGaussianBlur stdDeviation="2"/>
<feComposite in2="hardAlpha" operator="out"/>
<feColorMatrix type="matrix" values="0 0 0 0 0 0 0 0 0 0 0 0 0 0 0 0 0 0 0.25 0"/>
<feBlend mode="normal" in2="BackgroundImageFix" result="effect1_dropShadow_10_10"/>
<feBlend mode="normal" in="SourceGraphic" in2="effect1_dropShadow_10_10" result="shape"/>
</filter>
<clipPath id="clip0_10_10">
<rect width="32" height="32" fill="white"/>
</clipPath>
</defs>
</svg>
